<svg xmlns="http://www.w3.org/2000/svg" viewBox="0 0 512 512">
  <defs>
    <linearGradient id="bg" x1="86" y1="58" x2="426" y2="454" gradientUnits="userSpaceOnUse">
      <stop stop-color="#0AA39F"/>
      <stop offset="0.52" stop-color="#497C58"/>
      <stop offset="1" stop-color="#FF6F63"/>
    </linearGradient>
    <linearGradient id="coin" x1="166" y1="145" x2="360" y2="365" gradientUnits="userSpaceOnUse">
      <stop stop-color="#FFE49A"/>
      <stop offset="1" stop-color="#FFC857"/>
    </linearGradient>
    <filter id="shadow" x="-20%" y="-20%" width="140%" height="150%">
      <feDropShadow dx="0" dy="18" stdDeviation="18" flood-color="#101617" flood-opacity="0.28"/>
    </filter>
  </defs>
  <rect width="512" height="512" rx="116" fill="url(#bg)"/>
  <circle cx="102" cy="92" r="68" fill="#FFFFFF" opacity="0.12"/>
  <circle cx="424" cy="418" r="112" fill="#FFFFFF" opacity="0.10"/>
  <g filter="url(#shadow)">
    <path d="M134 278c0-77.3 58.8-135 139-135 74.8 0 132 51.1 132 120.4 0 69.8-53.7 121.6-127.2 121.6h-77.1c-37 0-66.7-30-66.7-67v-40Z" fill="#FFFFFF" opacity="0.92"/>
    <path d="M159 275c0-62.3 47.7-108 113-108 60.5 0 107 40 107 95.2 0 55.8-43.6 96.8-102.7 96.8h-70.1c-26.2 0-47.2-21.2-47.2-47.4V275Z" fill="url(#coin)"/>
    <path d="M203 187c15.2-30.5 43.8-46.3 78.2-46.3 11.5 0 22 1.7 32 5.2" fill="none" stroke="#FFFFFF" stroke-width="18" stroke-linecap="round" opacity="0.72"/>
    <path d="M199 267h116" stroke="#101617" stroke-width="17" stroke-linecap="round" opacity="0.82"/>
    <path d="M257 213v108" stroke="#101617" stroke-width="17" stroke-linecap="round" opacity="0.82"/>
    <path d="M337 184l57-34c9.4-5.6 20 5.1 14.3 14.5l-34 56" fill="#FFFFFF"/>
    <path d="M338 184l39 39" stroke="#101617" stroke-width="11" stroke-linecap="round" opacity="0.72"/>
  </g>
  <text x="256" y="438" text-anchor="middle" font-family="Aptos, Segoe UI, Arial, sans-serif" font-size="82" font-weight="800" fill="#FFFFFF" letter-spacing="-4">GR</text>
</svg>
